<svg id="Layer_1" data-name="Layer 1" xmlns="http://www.w3.org/2000/svg" viewBox="0 0 482.72 90.23"><path d="M45.12,9.05a36.07,36.07,0,0,1,14,69.3A36.08,36.08,0,0,1,31.08,11.88a35.79,35.79,0,0,1,14-2.83m0-9h0A45.12,45.12,0,0,0,0,45.12H0A45.11,45.11,0,0,0,45.12,90.23h0A45.1,45.1,0,0,0,90.23,45.12h0A45.11,45.11,0,0,0,45.12,0Z"></path><polygon points="45.12 14.15 52.07 35.55 74.57 35.55 56.37 48.77 63.32 70.17 45.12 56.95 26.91 70.17 33.87 48.77 15.66 35.55 38.16 35.55 45.12 14.15"></polygon><path d="M123.83,49.64h10.45a10.24,10.24,0,0,1-10.5,8.79c-7,0-11.16-5.49-11.18-14.72,0-8.59,4.28-13.85,11.2-13.86,4.68,0,8,2.36,9,6.33l9.29-.59c-2-8.59-9.06-13.89-18.41-13.88-12.57,0-20.76,8.94-20.74,22.65s7.47,22,19.58,22c6.22,0,9.87-1.81,12.81-6.43l1.35,5.45h5.77l0-23.65-18.65,0Z"></path><path d="M176.83,42.64c-2.32-5.83-7.26-9.09-13.8-9.08-9.35,0-15.82,6.69-15.8,16.37s6.37,16.27,15.92,16.25c7.37,0,13.13-3.86,14.85-9.89l-9.23,0a5.79,5.79,0,0,1-5.38,2.76c-3.91,0-6.41-2.3-7-6.53l22,0A25.27,25.27,0,0,0,176.83,42.64Zm-20.38,3.49c.7-3.65,3-5.64,6.53-5.65s5.64,2,6,5.63Z"></path><path d="M194.48,24.93h-9.1v9.81H181v6.41h4.36l0,14.1c0,4.8.39,6.47,1.81,8s3.33,2.05,7.31,2.05h5.57V58.44h-3.27c-2.11,0-2.31-.38-2.31-5.25l0-12h5.58V34.73h-5.58Z"></path><polygon points="206.46 65.29 216.07 65.28 216.04 48.16 235.14 48.14 235.13 40.25 216.03 40.28 216.02 30.73 237.81 30.7 237.8 22.5 206.4 22.54 206.46 65.29"></polygon><path d="M269.69,42.51c-2.32-5.83-7.26-9.09-13.8-9.08-9.35,0-15.82,6.69-15.8,16.37S246.45,66.06,256,66.05c7.37,0,13.14-3.86,14.86-9.89h-9.23a5.81,5.81,0,0,1-5.38,2.77c-3.91,0-6.41-2.3-7-6.53l22,0A25.23,25.23,0,0,0,269.69,42.51ZM249.31,46c.7-3.65,3-5.64,6.53-5.65s5.64,2,6,5.63Z"></path><path d="M306,56.11h-9.23a5.82,5.82,0,0,1-5.38,2.77c-3.91,0-6.41-2.3-7-6.53l22,0c0-4.3-.45-7.18-1.55-9.87-2.31-5.83-7.25-9.09-13.79-9.08-9.36,0-15.82,6.69-15.81,16.37S281.58,66,291.13,66C298.5,66,304.26,62.14,306,56.11ZM291,40.3c3.52,0,5.64,2,6,5.63l-12.56,0C285.14,42.3,287.44,40.31,291,40.3Z"></path><path d="M324.09,66a9.57,9.57,0,0,0,8.52-4.17v3.33h8.72l-.06-42.75h-9.1l0,14.1a10.06,10.06,0,0,0-7.89-3.19c-8.33,0-13.83,6.56-13.82,16.43S316,66,324.09,66ZM326,40.64c4,0,6.54,3.58,6.55,9.09,0,5.25-2.62,8.85-6.53,8.85s-6.54-3.51-6.55-9S322,40.64,326,40.64Z"></path><path d="M357,61.55c2.44,3.2,4.62,4.35,8.47,4.34,7.94,0,13.64-7,13.62-16.74,0-9.49-5.34-15.89-13.22-15.88a13.22,13.22,0,0,0-8.52,3l0-14h-9.1l.06,42.75,8.71,0Zm6.57-20.9c4,0,6.54,3.45,6.55,9,0,5.39-2.55,8.85-6.52,8.86S357,55,357,49.56,359.57,40.65,363.54,40.65Z"></path><path d="M400.33,45.08l-4.93.84c-8.65,1.42-12.3,4.44-12.29,10.27s4.56,9.67,11.42,9.66a12,12,0,0,0,8.84-3.28,24.82,24.82,0,0,0,.71,2.44l9.29,0c-1-1.53-1.15-2-1.16-5.31l0-14.23c0-4.55-.84-7.05-3.09-9-2.44-2.11-6-3.2-10.71-3.19-8.71,0-13.13,3.48-13.7,10.59h8.14c.38-2.5,2.18-3.66,5.51-3.66,3,0,4.74,1.08,4.75,2.81C403.09,44.24,402.38,44.76,400.33,45.08Zm3,5.19V55a7.1,7.1,0,0,1-6.66,3.92c-2.88,0-4.62-1.21-4.62-3.26,0-1.86,1.41-3,4.67-3.73l3.27-.71A18.13,18.13,0,0,0,403.35,50.27Z"></path><path d="M438,53.1c-.7,3.66-2.49,5.33-5.76,5.33-4.23,0-6.48-3.13-6.49-9.09,0-5.64,2.23-8.78,6.4-8.79a5.26,5.26,0,0,1,5.65,4.61l8.65,0c-.59-7.37-6.11-12-14.18-12-9.81,0-15.69,6.17-15.68,16.43,0,9.93,6,16.2,15.4,16.19,8.21,0,13.58-4.44,14.86-12.26Z"></path><polygon points="460.91 54.61 463.86 51.72 471.57 64.91 482.72 64.89 469.87 45.75 481.65 33.94 470.37 33.96 460.9 44.61 460.87 22.18 451.77 22.19 451.83 64.94 460.93 64.93 460.91 54.61"></polygon></svg>